<svg xmlns="http://www.w3.org/2000/svg" xml:space="preserve" width="2000" height="119" data-id="lg_mTxpPjFv1zjfaUqlKm" data-version="1" viewBox="0 0 2000 119"><g data-padding="20"><g transform="translate(10 2.125)scale(.96429)"><rect width="560" height="118.65" x="346.167" y="-399.905" fill="none" rx="0" ry="0" transform="translate(400.5 400.08)"/><path fill="#fff" d="m748.377 91.47 13.02-72.13q.1-.41.51-.41h15.23q.41 0 .51.41l12.51 72.13q.05.52-.41.52h-11.64q-.51 0-.56-.52l-1.13-7.69h-14.3l-1.13 7.69q-.05.52-.51.52h-11.69q-.41 0-.41-.52m21.02-52.29-.46 3.89-4.72 29.48h10.1l-4.31-29.48Z"/><path fill="#fff" d="M824.357 91.99h-33.94q-.42 0-.42-.52l.11-72.03q0-.51.51-.51h11.69q.51 0 .51.51l-.1 59.63h21.64q.51 0 .51.51v11.89q0 .52-.51.52m12.91 0h-11.79q-.51 0-.51-.52l.2-72.13q0-.41.41-.41h33.64q.51 0 .51.41v11.84q0 .41-.41.41h-21.54v16.3h21.54q.41 0 .41.52l.1 11.89q0 .41-.51.41h-21.54v30.76q0 .52-.51.52m37.48 0h-11.9q-.41 0-.41-.52l.21-72.13q0-.41.41-.41h21.22q5.69 0 10.46 2.77 4.77 2.76 7.61 7.43 2.85 4.66 2.85 10.56 0 3.85-1.18 6.97-1.18 3.13-2.74 5.28-1.57 2.16-2.85 3.18 5.69 6.31 5.69 14.82l.11 21.53q0 .52-.52.52h-11.89q-.41 0-.41-.31V69.94q0-3.79-2.67-6.56-2.66-2.77-6.56-2.77h-6.92l-.1 30.86q0 .52-.41.52m9.53-60.5h-9.02V48h9.02q3.23 0 5.77-2.41t2.54-5.9q0-3.33-2.46-5.77-2.46-2.43-5.85-2.43m56.39 60.5h-33.94q-.41 0-.41-.52l.11-72.13q0-.41.41-.41h33.73q.41 0 .41.51v11.74q0 .41-.41.41h-21.53V48h21.53q.41 0 .41.41l.11 11.89q0 .41-.42.41h-21.63v18.36h21.63q.42 0 .42.51v12q0 .41-.42.41m22.35-.11-18.81.11q-.51 0-.51-.52l.2-72.13q0-.41.41-.41l19.64-.11q5.84-.15 10.56 2.67 4.77 2.82 7.61 7.61 2.85 4.8 2.85 10.59v30.15q0 6.05-2.92 11.07-2.98 4.97-7.9 7.92t-11.13 3.05m.93-60.49-7.33.1-.11 47.58h6.51q3.9 0 6.57-2.72 2.66-2.72 2.66-6.51V39.59q0-3.33-2.46-5.82t-5.84-2.38m41.98 61.62q-5.58 0-10.3-2.87-4.67-2.87-7.51-7.66-2.85-4.8-2.85-10.54l.1-33.27q0-5.85 2.82-10.51 2.77-4.72 7.49-7.57 4.72-2.84 10.25-2.84 5.75 0 10.31 2.82 4.61 2.82 7.41 7.56 2.79 4.74 2.79 10.54l.1 33.27q0 5.74-2.76 10.51-2.82 4.82-7.49 7.69t-10.36 2.87m0-12.66q3.18 0 5.54-2.59t2.36-5.82l-.1-33.27q0-3.49-2.21-5.9-2.2-2.41-5.59-2.41-3.23 0-5.53 2.36-2.31 2.36-2.31 5.95v33.27q0 3.43 2.31 5.92 2.3 2.49 5.53 2.49m54.65 11.64h-11.89q-.42 0-.42-.52l.21-72.13q0-.41.41-.41h21.23q5.69 0 10.45 2.77 4.77 2.76 7.62 7.43 2.84 4.66 2.84 10.56 0 3.85-1.18 6.97-1.17 3.13-2.74 5.28-1.56 2.16-2.84 3.18 5.69 6.31 5.69 14.82l.1 21.53q0 .52-.51.52h-11.9q-.41 0-.41-.31V69.94q0-3.79-2.66-6.56-2.67-2.77-6.57-2.77h-6.92l-.1 30.86q0 .52-.41.52m9.54-60.5h-9.03V48h9.03q3.23 0 5.76-2.41 2.54-2.41 2.54-5.9 0-3.33-2.46-5.77-2.46-2.43-5.84-2.43"/><path fill="#fff" d="M1111.587 93.01q-5.59 0-10.31-2.87-4.66-2.87-7.51-7.66-2.84-4.8-2.84-10.54l.1-33.27q0-5.85 2.82-10.51 2.77-4.72 7.49-7.57 4.71-2.84 10.25-2.84 5.74 0 10.3 2.82 4.62 2.82 7.41 7.56 2.8 4.74 2.8 10.54l.1 33.27q0 5.74-2.77 10.51-2.82 4.82-7.48 7.69-4.67 2.87-10.36 2.87m0-12.66q3.18 0 5.54-2.59 2.35-2.59 2.35-5.82l-.1-33.27q0-3.49-2.2-5.9-2.21-2.41-5.59-2.41-3.23 0-5.54 2.36t-2.31 5.95v33.27q0 3.43 2.31 5.92t5.54 2.49m34.09 11.64h-11.89q-.42 0-.42-.52l.21-72.13q0-.41.41-.41h12.82q.41 0 .72.41l9.58 13.84 9.54-13.84q.31-.41.77-.41h12.87q.46 0 .46.41l.2 72.13q0 .52-.41.52h-11.89q-.41 0-.41-.52l-.1-53.57-11.03 15.99-10.92-15.99-.1 53.57q0 .52-.41.52m71.67 0h-33.94q-.41 0-.41-.52l.1-72.13q0-.41.41-.41h33.74q.41 0 .41.51v11.74q0 .41-.41.41h-21.53V48h21.53q.41 0 .41.41l.1 11.89q0 .41-.41.41h-21.63v18.36h21.63q.41 0 .41.51v12q0 .41-.41.41m15.33 0h-11.9q-.41 0-.41-.52l.21-72.13q0-.41.41-.41h21.22q5.69 0 10.46 2.77 4.77 2.76 7.62 7.43 2.84 4.66 2.84 10.56 0 3.85-1.18 6.97-1.18 3.13-2.74 5.28-1.57 2.16-2.85 3.18 5.69 6.31 5.69 14.82l.11 21.53q0 .52-.52.52h-11.89q-.41 0-.41-.31V69.94q0-3.79-2.67-6.56-2.66-2.77-6.56-2.77h-6.92l-.1 30.86q0 .52-.41.52m9.53-60.5h-9.02V48h9.02q3.23 0 5.77-2.41t2.54-5.9q0-3.33-2.46-5.77-2.46-2.43-5.85-2.43"/><path fill="#fff" d="M1283.687 93.01q-5.59 0-10.31-2.87-4.66-2.87-7.51-7.66-2.85-4.8-2.85-10.54l.11-33.27q0-5.85 2.82-10.51 2.77-4.72 7.48-7.57 4.72-2.84 10.26-2.84 5.74 0 10.3 2.82 4.62 2.82 7.41 7.56t2.79 10.54l.11 33.27q0 5.74-2.77 10.51-2.82 4.82-7.49 7.69-4.66 2.87-10.35 2.87m0-12.66q3.17 0 5.53-2.59t2.36-5.82l-.1-33.27q0-3.49-2.21-5.9-2.2-2.41-5.58-2.41-3.23 0-5.54 2.36t-2.31 5.95v33.27q0 3.43 2.31 5.92t5.54 2.49"/></g><path fill="transparent" stroke="transparent" d="M720 0h560v119H720z"/></g></svg>